<svg id="svg" version="1.1" xmlns="http://www.w3.org/2000/svg" xmlns:xlink="http://www.w3.org/1999/xlink" width="400" height="400" viewBox="0, 0, 400,400"><g id="svgg"><path id="path0" d="M109.107 147.267 C 109.482 147.642,109.600 151.755,109.600 164.480 C 109.600 175.621,109.737 181.200,110.010 181.200 C 110.235 181.200,111.720 180.209,113.310 178.997 C 116.334 176.692,119.088 175.200,120.316 175.200 C 120.714 175.200,121.230 175.010,121.462 174.778 C 121.978 174.262,132.237 174.492,134.644 175.074 C 144.102 177.362,157.052 190.442,155.843 196.487 C 155.717 197.117,155.790 197.985,156.007 198.416 C 156.223 198.847,156.580 199.558,156.800 199.995 C 157.020 200.432,157.200 201.116,157.200 201.515 C 157.200 201.914,157.408 202.448,157.662 202.702 C 158.377 203.417,158.228 215.227,157.468 218.064 C 156.776 220.651,153.643 227.600,153.169 227.600 C 152.996 227.600,152.740 227.959,152.601 228.398 C 152.264 229.459,146.650 235.112,144.476 236.579 C 142.114 238.173,142.000 238.505,142.000 243.797 C 142.000 246.632,141.852 248.356,141.620 248.212 C 141.253 247.986,140.400 249.171,140.400 249.907 C 140.400 250.582,141.778 250.269,142.482 249.433 C 142.939 248.890,143.291 248.748,143.492 249.025 C 143.706 249.319,144.106 249.290,144.800 248.931 C 145.350 248.645,145.575 248.409,145.300 248.406 C 144.594 248.398,144.678 247.732,145.421 247.447 C 145.777 247.311,145.937 247.378,145.797 247.605 C 145.663 247.822,145.716 248.000,145.915 248.000 C 146.115 248.000,146.473 247.595,146.712 247.100 C 146.951 246.605,147.158 246.453,147.173 246.762 C 147.194 247.197,147.378 247.163,147.991 246.609 C 148.425 246.215,148.686 245.739,148.570 245.551 C 148.454 245.363,148.667 245.328,149.045 245.473 C 149.511 245.651,149.638 245.585,149.442 245.268 C 149.269 244.988,149.400 244.800,149.767 244.800 C 150.105 244.800,150.675 244.352,151.035 243.803 C 151.394 243.255,151.848 242.906,152.044 243.027 C 152.240 243.148,152.400 243.048,152.400 242.805 C 152.400 242.561,152.876 241.920,153.458 241.381 C 154.041 240.841,154.401 240.400,154.258 240.400 C 154.116 240.400,154.315 240.066,154.700 239.657 C 155.085 239.249,155.490 238.934,155.600 238.957 C 155.710 238.981,155.833 238.851,155.874 238.670 C 155.914 238.488,156.293 238.038,156.715 237.670 C 157.136 237.301,157.763 236.460,158.107 235.800 C 158.451 235.140,159.107 234.203,159.566 233.717 C 160.025 233.231,160.400 232.680,160.400 232.492 C 160.400 232.304,160.724 231.802,161.120 231.375 C 161.818 230.624,162.404 229.463,162.353 228.932 C 162.340 228.789,162.614 228.512,162.964 228.316 C 163.314 228.120,163.600 227.555,163.600 227.060 C 163.600 226.565,163.752 225.989,163.938 225.780 C 164.378 225.285,166.143 220.828,166.299 219.817 C 166.366 219.387,166.641 218.895,166.910 218.723 C 167.180 218.552,167.243 218.409,167.051 218.406 C 166.859 218.403,166.926 218.130,167.200 217.800 C 167.601 217.316,167.592 217.199,167.149 217.194 C 166.734 217.189,166.720 217.112,167.090 216.877 C 167.359 216.705,167.635 216.213,167.701 215.783 C 167.768 215.352,167.920 214.820,168.038 214.600 C 168.157 214.380,168.311 213.480,168.380 212.600 C 168.575 210.132,168.712 209.000,168.815 209.000 C 169.109 209.000,169.084 196.767,168.787 195.600 C 168.591 194.830,168.387 193.525,168.334 192.700 C 168.280 191.875,168.074 191.200,167.875 191.200 C 167.677 191.200,167.611 190.948,167.730 190.639 C 167.848 190.331,167.832 189.965,167.694 189.828 C 167.557 189.690,167.402 189.032,167.351 188.365 C 167.300 187.698,167.067 186.922,166.833 186.640 C 166.599 186.357,166.525 186.008,166.670 185.863 C 166.815 185.718,166.746 185.600,166.517 185.600 C 166.287 185.600,166.100 185.160,166.100 184.621 C 166.100 184.083,165.806 183.349,165.446 182.989 C 165.087 182.630,164.880 182.194,164.987 182.022 C 165.093 181.849,164.645 180.661,163.990 179.381 C 163.336 178.101,162.800 176.899,162.800 176.710 C 162.800 176.521,162.446 175.987,162.014 175.523 C 161.581 175.059,161.322 174.526,161.437 174.339 C 161.553 174.153,161.356 174.000,161.000 174.000 C 160.644 174.000,160.455 173.835,160.580 173.632 C 160.705 173.430,160.536 172.993,160.204 172.661 C 159.872 172.329,159.600 171.864,159.600 171.629 C 159.600 171.393,159.463 171.200,159.295 171.200 C 159.127 171.200,158.812 170.877,158.595 170.481 C 157.440 168.379,156.546 167.205,156.100 167.203 C 155.825 167.201,155.600 166.961,155.600 166.670 C 155.600 165.960,153.818 164.315,153.449 164.684 C 153.289 164.844,153.270 164.684,153.406 164.328 C 153.543 163.972,153.434 163.545,153.165 163.379 C 152.825 163.168,152.777 163.247,153.007 163.638 C 153.189 163.947,152.947 163.857,152.469 163.438 C 151.991 163.019,151.600 162.468,151.600 162.213 C 151.600 161.959,151.034 161.332,150.343 160.821 C 149.651 160.310,149.215 160.141,149.373 160.446 C 149.530 160.751,149.376 160.651,149.030 160.224 C 148.683 159.796,148.400 159.612,148.400 159.813 C 148.400 160.014,148.120 159.778,147.777 159.289 C 147.435 158.800,146.850 158.386,146.477 158.368 C 146.002 158.346,145.961 158.273,146.339 158.122 C 146.714 157.973,146.544 157.688,145.782 157.188 C 145.179 156.793,144.441 156.563,144.143 156.677 C 143.844 156.792,143.600 156.686,143.600 156.443 C 143.600 156.199,143.285 155.997,142.900 155.994 C 142.296 155.989,142.282 155.930,142.800 155.563 C 143.272 155.228,143.173 155.173,142.337 155.306 C 141.673 155.412,141.336 155.310,141.441 155.037 C 141.534 154.796,141.269 154.386,140.854 154.126 C 139.683 153.395,139.959 154.789,141.200 155.875 L 142.200 156.749 142.086 166.575 L 141.973 176.400 140.986 176.400 C 140.444 176.400,140.000 176.220,140.000 176.000 C 140.000 175.780,139.561 175.600,139.024 175.600 C 138.487 175.600,137.936 175.420,137.800 175.200 C 137.664 174.980,136.969 174.800,136.256 174.800 C 135.543 174.800,134.789 174.645,134.580 174.455 C 133.104 173.117,121.391 173.121,120.563 174.460 C 120.447 174.647,120.014 174.800,119.601 174.800 C 118.660 174.800,114.538 177.039,113.206 178.275 C 111.168 180.164,111.200 180.403,111.200 163.085 L 111.200 146.970 109.907 146.872 C 108.881 146.793,108.715 146.875,109.107 147.267 M112.700 147.082 C 113.195 147.178,114.005 147.178,114.500 147.082 C 114.995 146.987,114.590 146.909,113.600 146.909 C 112.610 146.909,112.205 146.987,112.700 147.082 M104.830 147.573 C 104.450 147.813,104.763 147.887,105.771 147.793 C 106.601 147.716,107.383 147.551,107.507 147.426 C 107.882 147.051,105.444 147.184,104.830 147.573 M88.812 152.586 C 88.535 152.919,88.162 153.100,87.982 152.989 C 87.802 152.878,87.542 152.970,87.404 153.193 C 87.266 153.417,87.388 153.594,87.676 153.587 C 88.351 153.571,89.808 152.475,89.528 152.194 C 89.410 152.077,89.088 152.253,88.812 152.586 M136.594 152.410 C 136.455 152.635,136.521 152.770,136.742 152.710 C 136.963 152.649,137.421 152.960,137.759 153.400 C 138.241 154.027,138.377 154.066,138.387 153.580 C 138.411 152.433,137.106 151.582,136.594 152.410 M101.614 156.237 C 101.863 156.893,101.955 166.548,101.863 182.537 C 101.783 196.431,101.774 204.560,101.842 200.600 C 101.911 196.640,102.159 185.415,102.394 175.655 C 102.815 158.088,102.693 155.200,101.530 155.200 C 101.359 155.200,101.397 155.666,101.614 156.237 M97.229 157.491 C 96.553 158.311,96.000 159.161,96.000 159.380 C 96.000 159.599,96.298 159.333,96.662 158.789 C 97.027 158.245,97.688 157.395,98.132 156.900 C 98.576 156.405,98.831 156.000,98.699 156.000 C 98.567 156.000,97.905 156.671,97.229 157.491 M95.280 161.087 C 94.404 163.366,93.764 205.732,94.520 211.400 C 94.875 214.059,95.254 215.655,96.515 219.800 C 98.337 225.788,101.426 230.104,107.512 235.162 L 109.623 236.918 109.587 247.751 L 109.550 258.584 112.989 258.631 C 114.881 258.656,116.502 258.559,116.591 258.414 C 116.681 258.270,115.459 258.170,113.877 258.193 L 111.000 258.236 111.113 247.923 L 111.226 237.611 110.113 236.619 C 109.501 236.073,107.952 234.791,106.672 233.768 C 99.890 228.355,96.137 220.705,94.914 209.800 C 94.254 203.915,94.908 162.565,95.684 161.066 C 95.894 160.662,95.984 160.251,95.886 160.153 C 95.788 160.055,95.515 160.475,95.280 161.087 M75.800 161.533 C 75.690 161.643,75.603 162.018,75.606 162.367 C 75.611 162.922,75.661 162.926,76.006 162.400 C 76.352 161.873,76.446 161.872,76.778 162.388 C 77.238 163.103,77.708 162.747,77.392 161.924 C 77.174 161.355,76.214 161.120,75.800 161.533 M74.578 162.835 C 74.431 163.074,74.510 163.470,74.755 163.715 C 75.370 164.330,75.312 164.800,74.620 164.800 C 74.301 164.800,73.877 165.090,73.679 165.445 C 73.391 165.958,73.149 166.001,72.499 165.653 C 71.509 165.123,70.988 165.902,70.846 168.124 C 70.821 168.522,70.628 168.741,70.417 168.611 C 70.207 168.481,70.134 168.065,70.255 167.687 C 70.442 167.104,70.410 167.091,70.047 167.600 C 69.811 167.930,69.711 168.500,69.825 168.866 C 69.939 169.233,69.817 169.666,69.554 169.828 C 69.227 170.031,69.179 169.947,69.402 169.562 C 69.582 169.253,69.180 169.534,68.510 170.187 C 67.840 170.840,67.385 171.616,67.498 171.911 C 67.619 172.228,67.351 172.540,66.844 172.673 C 66.158 172.852,66.078 173.012,66.448 173.458 C 66.818 173.903,66.787 173.970,66.297 173.782 C 65.958 173.652,65.545 173.766,65.379 174.035 C 65.169 174.374,65.248 174.424,65.638 174.197 C 65.947 174.018,65.773 174.341,65.250 174.915 C 64.728 175.488,64.300 176.414,64.300 176.972 C 64.300 177.529,64.142 177.888,63.950 177.769 C 63.758 177.650,63.600 177.839,63.600 178.189 C 63.600 178.539,63.330 178.929,63.000 179.055 C 62.670 179.182,62.400 179.716,62.400 180.243 C 62.400 180.769,62.241 181.200,62.047 181.200 C 61.511 181.200,61.221 182.740,61.725 182.908 C 61.985 182.995,61.815 183.432,61.312 183.972 C 60.843 184.475,60.555 185.139,60.673 185.447 C 60.791 185.755,60.594 186.455,60.235 187.003 C 59.875 187.551,59.682 188.000,59.805 188.000 C 59.928 188.000,59.843 188.345,59.617 188.768 C 59.318 189.326,59.342 189.591,59.703 189.737 C 60.076 189.889,60.053 190.041,59.609 190.349 C 59.239 190.606,59.022 191.404,59.030 192.480 C 59.036 193.426,58.868 194.319,58.656 194.464 C 58.004 194.910,58.177 209.847,58.844 210.668 C 59.326 211.262,59.320 211.306,58.800 211.000 C 58.324 210.720,58.289 210.766,58.630 211.223 C 58.867 211.540,59.093 212.780,59.133 213.979 C 59.174 215.177,59.408 216.282,59.655 216.434 C 59.901 216.586,59.982 216.906,59.835 217.144 C 59.687 217.382,59.864 218.031,60.227 218.586 C 60.591 219.140,60.788 219.854,60.666 220.171 C 60.544 220.489,60.808 221.210,61.251 221.774 C 61.733 222.386,61.865 222.800,61.580 222.800 C 61.218 222.800,61.223 222.946,61.600 223.400 C 61.874 223.730,61.941 224.004,61.749 224.009 C 61.557 224.014,61.850 224.370,62.400 224.800 C 62.950 225.230,63.181 225.586,62.913 225.591 C 62.644 225.596,62.528 225.869,62.654 226.198 C 62.781 226.526,63.040 226.699,63.230 226.581 C 63.421 226.464,63.691 226.825,63.832 227.384 C 63.972 227.943,64.258 228.400,64.467 228.400 C 64.676 228.400,64.736 228.580,64.600 228.800 C 64.464 229.020,64.515 229.200,64.712 229.200 C 64.910 229.200,65.282 229.661,65.539 230.225 C 65.909 231.037,65.901 231.198,65.503 230.995 C 65.226 230.854,65.406 231.097,65.902 231.535 C 66.398 231.973,66.625 232.392,66.407 232.466 C 66.188 232.540,66.412 233.059,66.905 233.619 C 67.397 234.179,67.620 234.375,67.400 234.053 C 67.062 233.560,67.134 233.541,67.865 233.930 C 68.348 234.187,68.682 234.702,68.620 235.095 C 68.430 236.304,69.947 238.066,70.938 237.789 C 71.621 237.598,71.676 237.635,71.200 237.968 C 70.667 238.341,70.667 238.389,71.200 238.400 C 71.733 238.411,71.733 238.455,71.200 238.800 C 70.715 239.114,70.772 239.189,71.500 239.194 C 71.995 239.197,72.400 239.370,72.400 239.577 C 72.400 239.784,72.715 239.894,73.100 239.821 C 73.485 239.748,74.038 239.944,74.328 240.257 C 74.776 240.740,74.701 240.798,73.828 240.639 C 73.263 240.537,72.800 240.621,72.800 240.826 C 72.800 241.032,73.081 241.200,73.424 241.200 C 73.767 241.200,73.944 241.368,73.817 241.572 C 73.691 241.777,73.770 242.058,73.993 242.196 C 74.217 242.334,74.400 242.257,74.400 242.024 C 74.400 241.791,74.563 241.600,74.763 241.600 C 74.962 241.600,75.031 241.960,74.916 242.400 C 74.799 242.847,74.904 243.200,75.153 243.200 C 75.399 243.200,75.603 242.975,75.606 242.700 C 75.942 212.763,75.708 163.337,75.231 163.520 C 74.828 163.675,74.736 163.543,74.918 163.069 C 75.206 162.318,74.990 162.169,74.578 162.835 M72.860 164.266 C 72.562 164.589,72.430 164.964,72.566 165.100 C 72.901 165.434,73.727 164.570,73.545 164.074 C 73.465 163.856,73.157 163.942,72.860 164.266 M123.423 178.347 C 122.775 178.486,124.655 178.600,127.600 178.600 C 130.545 178.600,132.425 178.486,131.777 178.347 C 131.130 178.208,129.250 178.095,127.600 178.095 C 125.950 178.095,124.070 178.208,123.423 178.347 M119.644 179.233 C 117.635 180.037,115.978 180.912,116.147 181.080 C 116.243 181.177,116.655 181.056,117.061 180.812 C 117.467 180.568,118.700 180.024,119.800 179.603 C 120.900 179.182,121.530 178.840,121.200 178.844 C 120.870 178.848,120.170 179.023,119.644 179.233 M133.400 178.976 C 134.436 179.434,136.890 179.932,136.566 179.617 C 136.365 179.422,135.480 179.158,134.600 179.031 C 133.720 178.903,133.180 178.878,133.400 178.976 M114.200 182.000 C 113.540 182.437,113.180 182.792,113.400 182.788 C 113.801 182.782,115.976 181.223,115.600 181.212 C 115.490 181.208,114.860 181.563,114.200 182.000 M141.200 181.779 C 141.200 181.889,141.740 182.259,142.400 182.600 C 143.060 182.941,143.600 183.131,143.600 183.021 C 143.600 182.911,143.060 182.541,142.400 182.200 C 141.740 181.859,141.200 181.669,141.200 181.779 M217.783 182.828 C 217.656 183.033,217.225 183.200,216.824 183.200 C 215.994 183.200,213.600 185.484,213.600 186.276 C 213.600 186.564,213.433 186.800,213.229 186.800 C 211.299 186.800,212.708 193.790,215.110 196.132 C 217.130 198.101,218.938 199.599,219.295 199.600 C 219.622 199.600,220.933 200.624,221.970 201.690 C 223.212 202.967,222.594 205.200,220.999 205.200 C 219.513 205.200,219.200 204.712,219.200 202.396 C 219.200 200.212,218.417 199.600,215.620 199.600 C 212.825 199.600,211.165 201.916,212.395 204.100 C 212.426 204.155,212.510 204.808,212.583 205.550 C 212.656 206.293,212.871 207.013,213.061 207.150 C 213.251 207.288,213.832 208.036,214.352 208.813 C 214.871 209.590,215.709 210.421,216.214 210.659 C 217.450 211.243,224.800 211.383,224.800 210.823 C 224.800 210.591,225.295 210.386,225.900 210.368 C 226.505 210.351,226.780 210.248,226.512 210.139 C 226.127 209.983,226.127 209.829,226.512 209.413 C 226.780 209.122,227.135 208.966,227.300 209.066 C 227.465 209.165,227.600 208.967,227.600 208.624 C 227.600 208.281,227.735 207.999,227.900 207.997 C 229.427 207.981,229.686 200.876,228.257 198.192 C 227.738 197.217,227.198 196.535,227.057 196.677 C 226.916 196.818,226.795 196.678,226.790 196.367 C 226.784 196.055,225.299 194.908,223.490 193.818 C 218.771 190.976,217.636 188.769,220.741 188.472 C 221.619 188.388,221.991 188.491,221.818 188.772 C 221.672 189.007,221.743 189.200,221.976 189.200 C 222.209 189.200,222.400 189.524,222.400 189.920 C 222.400 190.316,222.616 190.856,222.880 191.120 C 223.249 191.489,223.250 191.600,222.884 191.600 C 222.585 191.600,222.663 191.898,223.093 192.400 C 223.822 193.252,227.200 193.581,227.200 192.800 C 227.200 192.580,227.650 192.400,228.200 192.400 C 229.260 192.400,229.766 189.197,228.800 188.600 C 228.580 188.464,228.400 187.913,228.400 187.376 C 228.400 186.839,228.220 186.400,228.000 186.400 C 227.780 186.400,227.600 186.062,227.600 185.650 C 227.600 185.202,227.077 184.642,226.300 184.259 C 225.585 183.907,225.180 183.596,225.400 183.568 C 225.620 183.541,225.170 183.339,224.400 183.120 C 222.466 182.569,218.062 182.375,217.783 182.828 M177.614 183.974 C 176.878 185.350,177.067 209.232,177.823 210.311 C 178.425 211.170,178.672 211.200,185.233 211.200 L 192.020 211.200 192.424 210.137 C 192.646 209.552,192.771 208.067,192.701 206.837 L 192.573 204.600 188.274 204.486 L 183.975 204.373 184.000 194.486 C 184.014 189.049,184.020 184.285,184.013 183.900 C 183.993 182.799,178.207 182.866,177.614 183.974 M194.252 184.100 C 194.119 184.595,194.008 190.686,194.005 197.636 L 194.000 210.272 195.019 210.736 C 196.157 211.255,203.443 211.378,203.748 210.884 C 203.856 210.710,204.599 210.523,205.400 210.469 C 206.847 210.372,209.600 208.223,209.600 207.190 C 209.600 206.949,209.760 206.852,209.955 206.972 C 210.151 207.093,210.433 206.609,210.583 205.896 C 211.017 203.838,211.126 199.600,210.746 199.600 C 210.556 199.600,210.400 199.184,210.400 198.675 C 210.400 198.167,210.028 197.351,209.572 196.862 C 208.736 195.965,209.152 193.600,210.147 193.600 C 210.340 193.600,210.287 193.346,210.030 193.036 C 209.740 192.687,209.709 192.380,209.947 192.233 C 211.630 191.193,209.471 185.168,206.890 183.700 C 205.115 182.690,194.540 183.025,194.252 184.100 M148.241 187.018 C 150.023 188.768,151.878 190.740,152.363 191.400 C 152.891 192.119,153.069 192.239,152.807 191.699 C 152.231 190.509,147.810 185.800,146.239 184.701 C 145.558 184.225,146.458 185.267,148.241 187.018 M109.693 186.400 C 109.418 186.840,109.331 187.200,109.500 187.200 C 109.669 187.200,110.032 186.840,110.307 186.400 C 110.582 185.960,110.669 185.600,110.500 185.600 C 110.331 185.600,109.968 185.960,109.693 186.400 M202.900 188.957 C 204.455 190.137,203.597 193.347,201.700 193.448 C 200.856 193.493,200.800 193.338,200.800 190.948 C 200.800 188.219,201.301 187.743,202.900 188.957 M107.067 191.867 C 106.920 192.013,106.811 192.508,106.825 192.967 C 106.849 193.733,106.882 193.723,107.234 192.842 C 107.626 191.863,107.544 191.389,107.067 191.867 M142.000 198.403 C 142.000 203.990,141.951 204.382,141.300 204.050 C 140.915 203.854,140.060 203.471,139.400 203.200 C 138.740 202.929,137.887 202.548,137.505 202.353 C 137.123 202.159,136.279 202.000,135.629 202.000 C 134.979 202.000,134.336 201.820,134.200 201.600 C 134.064 201.380,133.121 201.200,132.105 201.200 C 131.088 201.200,129.704 201.037,129.028 200.837 C 128.353 200.638,126.450 200.165,124.800 199.786 C 120.837 198.876,119.031 197.938,116.500 195.473 L 114.400 193.427 114.428 194.814 C 114.444 195.576,114.623 196.560,114.827 197.000 C 115.109 197.608,115.142 197.487,114.967 196.500 C 114.739 195.212,115.308 194.662,115.730 195.762 C 116.051 196.599,119.444 198.818,121.733 199.687 C 123.802 200.473,124.585 200.658,131.400 201.969 C 139.952 203.614,145.269 207.024,148.172 212.726 C 148.909 214.172,149.726 214.239,149.928 212.869 C 150.151 211.354,150.757 211.933,150.588 213.500 C 150.439 214.893,150.451 214.915,150.766 213.800 C 151.251 212.085,151.274 207.293,150.800 207.000 C 150.580 206.864,150.400 206.281,150.400 205.705 C 150.400 201.836,144.663 192.400,142.311 192.400 C 142.140 192.400,142.000 195.102,142.000 198.403 M154.600 195.200 C 154.941 195.860,155.311 196.400,155.421 196.400 C 155.531 196.400,155.341 195.860,155.000 195.200 C 154.659 194.540,154.289 194.000,154.179 194.000 C 154.069 194.000,154.259 194.540,154.600 195.200 M115.200 198.060 C 115.200 198.187,115.740 198.969,116.400 199.800 C 117.060 200.631,117.593 201.150,117.584 200.955 C 117.566 200.564,115.200 197.691,115.200 198.060 M106.828 199.500 C 106.813 200.215,106.980 200.800,107.200 200.800 C 107.675 200.800,107.675 200.105,107.200 199.000 C 106.912 198.330,106.852 198.411,106.828 199.500 M242.278 200.116 C 241.575 200.743,241.270 201.126,241.600 200.969 C 242.087 200.737,242.106 200.784,241.700 201.221 C 241.006 201.969,241.074 203.798,241.819 204.416 C 242.313 204.825,242.333 204.994,241.919 205.250 C 240.945 205.852,241.280 207.732,242.564 208.870 C 243.229 209.459,243.914 209.853,244.086 209.747 C 244.259 209.640,244.400 209.704,244.400 209.890 C 244.400 210.802,248.296 209.757,248.613 208.760 C 248.745 208.342,249.032 208.000,249.251 208.000 C 249.469 208.000,249.550 208.157,249.432 208.348 C 249.167 208.777,250.523 210.400,251.147 210.400 C 251.396 210.400,251.600 210.220,251.600 210.000 C 251.600 209.780,251.827 209.600,252.104 209.600 C 252.381 209.600,252.832 209.240,253.107 208.800 C 253.821 207.657,254.720 207.808,256.081 209.300 C 256.852 210.144,257.338 210.425,257.467 210.100 C 257.577 209.825,257.922 209.600,258.233 209.600 C 258.545 209.600,258.800 209.420,258.800 209.200 C 258.800 208.980,259.250 208.800,259.800 208.800 C 260.350 208.800,260.800 208.980,260.800 209.200 C 260.800 209.420,260.935 209.579,261.100 209.553 C 261.862 209.432,262.427 209.633,262.229 209.953 C 262.109 210.147,262.503 210.260,263.105 210.203 C 264.815 210.043,266.400 209.547,266.400 209.172 C 266.400 208.985,266.745 208.509,267.166 208.116 C 267.813 207.511,267.921 206.888,267.866 204.100 C 267.830 202.285,267.938 200.754,268.106 200.698 C 268.275 200.642,268.137 200.202,267.800 199.721 C 266.250 197.508,263.783 200.182,264.080 203.754 C 264.266 205.997,263.732 206.931,262.869 205.876 C 262.409 205.314,262.062 200.789,262.500 201.061 C 263.115 201.443,262.771 200.520,261.984 199.675 C 260.244 197.807,259.154 198.753,258.896 202.355 C 258.718 204.840,258.000 206.507,258.000 204.433 C 258.000 204.012,257.831 203.607,257.624 203.533 C 257.416 203.460,257.158 202.903,257.049 202.297 C 256.687 200.271,256.392 199.725,255.424 199.284 C 254.217 198.734,252.000 199.470,252.000 200.421 C 252.000 200.776,251.865 201.202,251.700 201.367 C 251.383 201.684,251.330 201.901,251.250 203.224 C 251.222 203.677,251.020 203.936,250.800 203.800 C 250.578 203.663,250.397 203.964,250.394 204.476 C 250.391 204.984,250.213 205.670,250.000 206.000 C 249.686 206.485,249.611 206.428,249.606 205.700 C 249.603 205.205,249.441 204.800,249.247 204.800 C 249.052 204.800,248.799 204.440,248.684 204.000 C 248.569 203.560,248.617 203.200,248.791 203.200 C 248.965 203.200,249.192 202.755,249.296 202.212 C 249.399 201.669,249.330 201.319,249.142 201.436 C 248.954 201.552,248.800 201.311,248.800 200.901 C 248.800 198.884,244.273 198.340,242.278 200.116 M203.600 199.741 C 203.996 199.918,204.243 200.720,204.326 202.097 C 204.395 203.245,204.321 204.054,204.162 203.895 C 204.002 203.736,203.620 203.964,203.313 204.403 C 201.900 206.421,200.800 205.447,200.800 202.178 L 200.800 199.156 201.900 199.314 C 202.505 199.402,203.270 199.594,203.600 199.741 M232.200 203.315 C 230.885 204.909,232.513 206.369,235.624 206.387 C 238.269 206.402,239.299 205.802,239.042 204.396 C 238.942 203.848,238.846 203.265,238.830 203.100 C 238.779 202.585,232.638 202.785,232.200 203.315 M125.000 204.800 C 126.101 205.273,126.492 205.273,126.200 204.800 C 126.064 204.580,125.558 204.413,125.076 204.428 C 124.231 204.455,124.229 204.469,125.000 204.800 M109.522 213.631 C 109.664 223.923,109.651 223.873,112.679 225.882 C 121.405 231.671,134.196 231.351,139.750 225.203 C 140.546 224.321,141.378 223.600,141.599 223.600 C 142.184 223.600,142.089 222.832,141.422 222.165 C 140.918 221.661,140.762 221.760,140.202 222.939 C 136.966 229.759,122.993 231.478,114.138 226.146 C 111.044 224.283,111.213 224.891,111.205 215.600 C 111.197 207.725,110.738 204.804,109.506 204.800 C 109.448 204.799,109.455 208.774,109.522 213.631 M128.600 205.600 C 129.040 205.789,129.760 205.944,130.200 205.944 L 131.000 205.944 130.200 205.600 C 129.760 205.411,129.040 205.256,128.600 205.256 L 127.800 205.256 128.600 205.600 M259.076 207.500 C 258.975 207.885,258.893 207.570,258.893 206.800 C 258.893 206.030,258.975 205.715,259.076 206.100 C 259.176 206.485,259.176 207.115,259.076 207.500 M102.265 210.800 C 102.398 212.230,102.572 213.475,102.653 213.567 C 102.969 213.925,102.723 209.753,102.384 209.000 C 102.152 208.484,102.109 209.124,102.265 210.800 M188.300 210.697 C 186.595 210.772,183.805 210.772,182.100 210.697 C 180.395 210.622,181.790 210.561,185.200 210.561 C 188.610 210.561,190.005 210.622,188.300 210.697 M201.300 210.693 C 200.365 210.777,198.835 210.777,197.900 210.693 C 196.965 210.609,197.730 210.540,199.600 210.540 C 201.470 210.540,202.235 210.609,201.300 210.693 M103.054 215.400 C 103.474 217.303,104.048 218.446,103.756 216.800 C 103.620 216.030,103.346 215.130,103.149 214.800 C 102.914 214.408,102.881 214.616,103.054 215.400 M149.846 216.625 C 149.714 216.969,149.426 217.140,149.207 217.005 C 148.970 216.858,148.914 217.033,149.069 217.435 C 149.333 218.124,150.400 217.233,150.400 216.324 C 150.400 215.794,150.103 215.955,149.846 216.625 M141.400 226.000 C 141.250 226.473,141.217 226.950,141.327 227.060 C 141.437 227.170,141.650 226.873,141.800 226.400 C 141.950 225.927,141.983 225.450,141.873 225.340 C 141.763 225.230,141.550 225.527,141.400 226.000 M139.549 229.468 C 139.247 229.836,138.200 230.646,137.222 231.268 C 136.244 231.891,135.632 232.400,135.862 232.400 C 136.378 232.400,139.202 230.373,139.949 229.467 C 140.251 229.100,140.408 228.800,140.298 228.800 C 140.188 228.800,139.851 229.101,139.549 229.468 M114.000 230.597 C 114.000 230.868,117.249 232.484,117.430 232.303 C 117.514 232.219,116.776 231.759,115.791 231.281 C 114.806 230.802,114.000 230.494,114.000 230.597 M125.905 234.283 C 126.402 234.379,127.122 234.375,127.505 234.275 C 127.887 234.175,127.480 234.096,126.600 234.101 C 125.720 234.105,125.407 234.187,125.905 234.283 M70.000 236.400 C 70.507 236.840,70.743 237.200,70.523 237.200 C 70.304 237.200,69.798 236.840,69.400 236.400 C 69.002 235.960,68.766 235.600,68.877 235.600 C 68.987 235.600,69.493 235.960,70.000 236.400 M79.070 245.887 C 78.917 246.134,79.077 246.620,79.425 246.968 C 80.176 247.719,80.668 247.815,80.103 247.100 C 79.885 246.825,79.626 246.339,79.527 246.020 C 79.404 245.624,79.259 245.582,79.070 245.887 M138.460 251.866 C 137.819 252.561,137.999 252.895,138.760 252.425 C 139.056 252.242,139.231 251.909,139.149 251.686 C 139.063 251.450,138.772 251.526,138.460 251.866 M90.586 253.577 C 90.703 253.766,91.345 254.112,92.013 254.345 C 92.681 254.577,93.132 254.613,93.014 254.423 C 92.897 254.234,92.255 253.888,91.587 253.655 C 90.919 253.423,90.468 253.387,90.586 253.577 " stroke="none" fill="#524491" fill-rule="evenodd"></path><path id="path1" d="M98.420 157.486 C 95.739 160.166,95.647 160.900,95.303 182.200 C 94.884 208.218,95.249 213.784,97.826 220.631 C 104.316 237.874,124.201 245.725,140.586 237.515 C 167.914 223.821,160.632 182.889,130.200 179.132 C 112.987 177.006,100.834 194.014,111.042 205.941 C 113.268 208.541,118.074 210.550,124.600 211.610 C 131.897 212.794,134.045 213.463,137.139 215.512 C 144.480 220.376,144.034 229.276,136.275 232.775 C 124.882 237.913,110.860 232.908,104.802 221.543 C 101.454 215.262,101.097 211.110,101.266 180.435 C 101.417 153.079,101.573 154.333,98.420 157.486 M133.400 185.950 C 147.449 190.307,155.275 204.995,150.324 217.715 C 149.786 219.098,149.276 218.954,148.221 217.120 C 144.968 211.468,140.053 208.377,131.800 206.797 C 123.050 205.121,119.806 203.905,117.066 201.273 C 112.097 196.501,113.323 189.236,119.526 186.694 C 120.337 186.362,121.450 185.902,122.000 185.672 C 123.736 184.946,130.711 185.116,133.400 185.950 M258.509 202.800 C 258.509 203.790,258.587 204.195,258.682 203.700 C 258.778 203.205,258.778 202.395,258.682 201.900 C 258.587 201.405,258.509 201.810,258.509 202.800 " stroke="none" fill="#f8f8fa" fill-rule="evenodd"></path><path id="path2" d="M263.728 202.800 C 263.728 204.230,263.801 204.815,263.889 204.100 C 263.978 203.385,263.978 202.215,263.889 201.500 C 263.801 200.785,263.728 201.370,263.728 202.800 M178.014 216.774 C 177.571 217.601,177.438 224.312,177.843 225.367 C 178.363 226.724,183.573 226.233,183.860 224.800 C 183.992 224.140,184.148 223.600,184.208 223.600 C 184.267 223.600,184.893 224.140,185.600 224.800 C 186.858 225.975,190.800 226.631,190.800 225.664 C 190.800 225.480,191.254 225.122,191.808 224.869 C 192.362 224.617,193.011 223.913,193.249 223.305 C 193.682 222.202,193.683 222.201,194.031 223.108 C 195.167 226.063,198.856 227.034,200.959 224.932 C 201.988 223.903,202.023 223.721,201.914 220.032 L 201.800 216.200 200.400 216.200 L 199.000 216.200 198.800 219.200 C 198.509 223.568,197.449 223.498,197.283 219.100 L 197.166 216.000 196.007 216.000 C 194.650 216.000,194.316 216.429,193.981 218.600 C 193.742 220.146,193.719 220.166,193.311 219.200 C 191.125 214.022,184.040 215.333,183.968 220.929 C 183.951 222.288,183.846 223.175,183.735 222.900 C 183.624 222.625,182.918 222.400,182.167 222.400 L 180.800 222.400 180.800 219.200 L 180.800 216.000 179.614 216.000 C 178.851 216.000,178.281 216.276,178.014 216.774 M203.600 221.000 L 203.600 226.000 204.967 226.000 C 205.718 226.000,206.409 225.775,206.502 225.500 C 206.634 225.106,206.806 225.112,207.311 225.529 C 209.163 227.057,211.526 224.439,209.978 222.574 C 209.640 222.166,209.632 222.000,209.951 222.000 C 210.229 222.000,210.400 221.151,210.400 219.764 C 210.400 216.758,209.568 216.032,206.100 216.013 L 203.600 216.000 203.600 221.000 M214.098 216.462 C 213.824 216.736,213.600 217.338,213.600 217.800 C 213.600 218.262,213.390 218.850,213.133 219.107 C 212.719 219.521,211.971 221.256,211.329 223.294 C 210.548 225.771,213.957 227.265,214.995 224.900 C 215.212 224.405,215.484 224.000,215.600 224.000 C 215.716 224.000,215.988 224.405,216.205 224.900 C 216.658 225.932,218.525 226.326,219.424 225.580 C 220.234 224.907,220.137 223.230,219.199 221.690 C 218.759 220.970,218.400 220.061,218.400 219.670 C 218.400 219.280,218.235 218.789,218.034 218.580 C 217.832 218.371,217.607 217.750,217.534 217.200 C 217.381 216.056,215.013 215.547,214.098 216.462 M225.450 217.250 C 225.313 217.938,225.200 219.625,225.200 221.000 C 225.200 222.375,225.313 224.063,225.450 224.750 L 225.700 226.000 228.388 226.000 C 232.181 226.000,232.600 225.475,232.475 220.875 C 232.358 216.560,231.879 216.022,228.150 216.009 C 225.723 216.000,225.698 216.012,225.450 217.250 M233.614 216.774 C 230.807 222.019,236.687 228.884,240.542 224.861 C 241.867 223.477,242.032 217.082,240.762 216.283 C 238.947 215.142,238.000 216.222,238.000 219.431 C 238.000 221.340,237.853 222.356,237.600 222.200 C 237.380 222.064,237.200 220.829,237.200 219.456 C 237.200 216.177,234.867 214.432,233.614 216.774 M242.814 216.774 C 242.370 217.604,242.253 223.611,242.652 225.100 C 242.981 226.325,244.996 226.340,245.981 225.124 L 246.690 224.248 247.159 225.124 C 247.504 225.769,247.997 226.000,249.026 226.000 L 250.425 226.000 250.312 221.100 L 250.200 216.200 249.139 216.077 C 248.424 215.994,247.889 216.223,247.501 216.777 C 246.925 217.600,246.924 217.600,246.200 216.800 C 245.262 215.764,243.362 215.749,242.814 216.774 M252.173 216.526 C 252.062 216.815,252.023 219.020,252.086 221.426 L 252.200 225.800 253.366 225.933 C 254.120 226.019,254.656 225.842,254.886 225.433 C 255.334 224.632,256.000 224.612,256.000 225.400 C 256.000 226.261,259.134 226.237,259.466 225.373 C 259.711 224.735,259.005 223.028,258.100 222.071 C 257.825 221.781,257.600 221.299,257.600 221.000 C 257.600 220.701,257.825 220.212,258.100 219.913 C 258.863 219.082,259.600 217.676,259.600 217.048 C 259.600 215.873,256.686 215.590,256.020 216.700 C 255.621 217.367,255.575 217.367,255.056 216.700 C 254.419 215.881,252.466 215.763,252.173 216.526 M260.480 216.480 C 259.755 217.205,259.831 224.688,260.571 225.429 C 261.643 226.500,265.762 226.192,266.404 224.992 C 266.819 224.217,266.834 223.874,266.472 223.512 C 265.900 222.940,265.836 218.800,266.400 218.800 C 266.968 218.800,266.873 217.529,266.243 216.700 C 265.609 215.864,261.262 215.698,260.480 216.480 M267.773 216.526 C 267.662 216.815,267.623 219.020,267.686 221.426 L 267.800 225.800 268.980 225.934 C 269.758 226.023,270.334 225.831,270.669 225.373 C 271.137 224.733,271.199 224.731,271.432 225.339 C 271.800 226.297,274.074 226.214,274.696 225.219 C 275.003 224.727,275.039 224.347,274.792 224.195 C 274.278 223.877,274.285 221.319,274.800 221.000 C 275.718 220.432,274.819 217.706,273.346 216.590 C 272.365 215.847,268.053 215.797,267.773 216.526 M280.982 216.982 C 279.962 218.002,279.600 220.506,280.401 221.001 C 280.669 221.166,280.669 221.497,280.401 221.998 C 278.915 224.775,284.074 227.456,286.517 225.175 C 287.641 224.125,287.644 217.954,286.521 216.712 C 285.493 215.577,282.228 215.736,280.982 216.982 M289.067 216.267 C 288.920 216.413,288.800 218.663,288.800 221.267 L 288.800 226.000 291.320 226.000 C 294.531 226.000,295.908 224.535,294.300 222.830 C 293.900 222.406,293.900 222.263,294.300 222.117 C 294.940 221.882,294.958 220.000,294.320 220.000 C 293.947 220.000,293.947 219.893,294.320 219.520 C 295.030 218.810,294.924 216.533,294.167 216.243 C 293.313 215.915,289.400 215.933,289.067 216.267 M296.014 216.774 C 295.571 217.601,295.438 224.312,295.843 225.367 C 296.243 226.409,298.646 226.204,298.974 225.100 L 299.241 224.200 299.608 225.100 C 300.498 227.286,303.517 225.844,302.898 223.527 C 302.703 222.797,302.678 221.570,302.842 220.800 C 303.544 217.501,302.227 216.000,298.628 216.000 C 296.862 216.000,296.346 216.153,296.014 216.774 M304.400 218.175 C 304.400 219.399,304.580 220.400,304.800 220.400 C 305.020 220.400,305.200 220.940,305.200 221.600 C 305.200 222.260,305.380 222.800,305.600 222.800 C 305.820 222.800,306.006 223.205,306.013 223.700 C 306.047 226.144,309.102 226.973,310.064 224.800 C 310.356 224.140,310.731 223.600,310.898 223.600 C 311.064 223.600,311.200 223.251,311.200 222.824 C 311.200 222.397,311.380 221.936,311.600 221.800 C 311.820 221.664,312.000 221.034,312.000 220.400 C 312.000 219.766,312.180 219.136,312.400 219.000 C 312.651 218.845,312.800 219.720,312.800 221.350 C 312.800 225.202,313.240 226.078,315.099 225.924 L 316.600 225.800 316.600 221.000 L 316.600 216.200 315.338 216.078 C 314.393 215.986,313.917 216.183,313.438 216.867 C 312.960 217.549,312.800 217.616,312.800 217.132 C 312.800 216.470,312.017 216.000,310.914 216.000 C 310.061 216.000,308.790 217.552,308.514 218.931 C 308.295 220.026,308.258 219.993,307.619 218.136 C 307.028 216.421,306.807 216.186,305.676 216.075 L 304.400 215.949 304.400 218.175 M319.050 217.328 C 315.686 220.410,317.820 226.000,322.360 226.000 C 323.482 226.000,324.401 225.865,324.403 225.700 C 324.404 225.535,324.956 225.086,325.629 224.703 C 327.516 223.629,327.189 221.848,325.072 221.674 C 324.232 221.605,323.295 221.755,322.990 222.009 C 322.226 222.642,321.600 222.156,321.600 220.930 C 321.600 220.051,321.727 219.947,322.500 220.191 C 326.542 221.466,328.203 219.864,325.569 217.231 C 323.760 215.422,321.088 215.462,319.050 217.328 M328.096 216.464 C 327.529 217.031,327.399 224.664,327.942 225.520 C 328.173 225.885,329.095 226.004,331.036 225.920 L 333.800 225.800 333.927 224.474 C 333.997 223.744,333.840 222.889,333.578 222.574 C 333.279 222.213,333.257 222.000,333.519 222.000 C 333.777 222.000,333.911 220.891,333.868 219.100 L 333.800 216.200 331.196 216.084 C 329.515 216.009,328.416 216.144,328.096 216.464 M335.858 216.981 C 334.710 218.046,334.403 220.243,335.280 221.120 C 335.653 221.493,335.653 221.707,335.280 222.080 C 334.554 222.806,334.699 223.682,335.747 224.900 C 338.537 228.143,344.064 224.408,341.900 220.742 C 341.500 220.065,341.500 219.859,341.900 219.714 C 342.648 219.444,342.512 218.822,341.380 217.338 C 340.049 215.593,337.532 215.430,335.858 216.981 M189.600 220.976 C 189.600 222.211,188.896 222.668,188.147 221.918 C 187.416 221.187,187.847 220.000,188.843 220.000 C 189.379 220.000,189.600 220.285,189.600 220.976 " stroke="none" fill="#040404" fill-rule="evenodd"></path><path id="path3" d="M110.661 146.700 C 110.559 146.865,111.403 146.949,112.538 146.886 C 116.216 146.682,116.663 146.521,113.724 146.460 C 112.142 146.427,110.764 146.535,110.661 146.700 M103.310 147.650 C 103.063 147.898,102.397 148.100,101.830 148.100 C 101.264 148.100,100.800 148.258,100.800 148.450 C 100.800 148.643,100.185 148.800,99.433 148.800 C 98.682 148.800,98.005 148.985,97.929 149.212 C 97.854 149.438,97.254 149.663,96.596 149.712 C 95.938 149.760,95.310 149.916,95.200 150.059 C 95.090 150.201,94.550 150.381,94.000 150.459 C 93.450 150.536,92.910 150.690,92.800 150.800 C 92.156 151.444,90.732 152.033,91.035 151.530 C 91.369 150.974,90.564 151.524,89.030 152.900 C 88.154 153.685,86.993 153.859,87.438 153.138 C 87.615 152.852,87.548 152.785,87.262 152.962 C 87.008 153.119,86.800 153.487,86.800 153.781 C 86.800 154.392,85.711 154.916,85.154 154.572 C 84.948 154.444,84.830 154.579,84.890 154.870 C 84.952 155.169,84.687 155.374,84.282 155.341 C 83.887 155.309,83.281 155.714,82.936 156.241 C 82.591 156.769,81.974 157.200,81.567 157.200 C 81.027 157.200,80.897 157.391,81.087 157.900 C 81.301 158.470,81.243 158.513,80.774 158.133 C 80.124 157.607,78.800 158.301,78.800 159.168 C 78.800 159.431,78.647 159.553,78.460 159.437 C 78.273 159.322,77.733 159.673,77.260 160.217 C 76.371 161.240,76.133 161.812,76.758 161.426 C 77.164 161.175,77.743 162.390,77.388 162.746 C 77.261 162.873,76.986 162.712,76.778 162.388 C 76.446 161.872,76.352 161.873,76.006 162.400 C 75.743 162.801,75.610 162.834,75.606 162.500 C 75.596 161.652,74.974 161.949,74.907 162.834 C 74.870 163.334,75.036 163.595,75.322 163.485 C 75.691 163.344,75.780 172.478,75.711 203.515 C 75.616 246.081,75.597 245.591,77.296 244.541 C 77.463 244.437,77.600 244.633,77.600 244.976 C 77.600 245.319,77.791 245.600,78.024 245.600 C 78.257 245.600,78.336 245.780,78.200 246.000 C 77.854 246.560,78.540 246.500,79.120 245.920 C 79.493 245.547,79.600 245.555,79.600 245.958 C 79.600 246.707,81.202 248.846,81.585 248.609 C 81.764 248.499,82.123 248.666,82.384 248.981 C 82.645 249.295,83.115 249.454,83.429 249.333 C 83.752 249.210,84.000 249.352,84.000 249.661 C 84.000 250.547,85.626 251.401,86.047 250.737 C 86.295 250.347,86.389 250.440,86.394 251.076 C 86.397 251.558,86.608 252.081,86.862 252.238 C 87.158 252.421,87.215 252.347,87.020 252.032 C 86.798 251.673,86.942 251.682,87.558 252.067 C 88.021 252.356,88.400 252.699,88.400 252.830 C 88.400 252.960,88.625 253.083,88.900 253.104 C 90.415 253.215,91.932 253.726,92.957 254.469 C 93.594 254.931,93.972 255.059,93.798 254.754 C 93.543 254.306,93.586 254.296,94.021 254.700 C 94.318 254.975,94.884 255.200,95.280 255.200 C 95.676 255.200,96.000 255.341,96.000 255.513 C 96.000 255.685,96.485 255.866,97.078 255.915 C 97.670 255.964,98.292 256.226,98.460 256.497 C 98.628 256.768,99.358 257.024,100.082 257.067 C 101.885 257.171,103.259 257.419,104.140 257.798 C 104.627 258.007,105.002 257.925,105.234 257.558 C 105.511 257.121,105.589 257.114,105.594 257.527 C 105.598 257.846,105.877 257.966,106.300 257.832 C 106.685 257.710,107.522 257.881,108.160 258.212 C 109.746 259.036,109.653 259.697,109.625 247.742 L 109.600 237.000 107.501 235.200 C 100.120 228.870,97.716 224.982,95.252 215.400 C 93.404 208.214,93.927 163.878,95.909 159.684 C 97.054 157.261,99.307 155.200,100.811 155.200 C 102.792 155.200,102.863 156.139,102.376 175.655 C 101.425 213.777,102.370 219.903,110.377 227.513 C 119.904 236.568,138.091 235.799,141.431 226.199 C 142.509 223.103,141.947 222.770,139.750 225.203 C 134.211 231.334,121.407 231.670,112.725 225.913 C 109.647 223.872,109.824 224.545,109.600 214.033 C 109.451 207.040,109.273 204.623,108.900 204.499 C 108.625 204.408,108.400 203.988,108.400 203.567 C 108.400 203.145,108.220 202.800,108.000 202.800 C 107.780 202.800,107.600 202.350,107.600 201.800 C 107.600 201.250,107.420 200.800,107.200 200.800 C 106.958 200.800,106.800 199.075,106.800 196.424 C 106.800 193.937,106.973 191.940,107.200 191.800 C 107.420 191.664,107.600 191.113,107.600 190.576 C 107.600 190.039,107.780 189.600,108.000 189.600 C 108.220 189.600,108.400 189.240,108.400 188.800 C 108.400 188.360,108.580 188.000,108.800 188.000 C 109.020 188.000,109.200 187.727,109.200 187.393 C 109.200 186.263,114.107 181.855,116.870 180.503 C 122.617 177.690,131.465 177.268,136.600 179.562 C 137.040 179.758,138.030 180.152,138.800 180.437 C 144.154 182.418,150.875 188.273,154.123 193.787 C 156.283 197.455,156.710 196.748,154.833 192.609 C 151.037 184.237,142.743 177.034,134.644 175.074 C 132.237 174.492,121.978 174.262,121.462 174.778 C 121.230 175.010,120.714 175.200,120.316 175.200 C 119.088 175.200,116.334 176.692,113.310 178.997 C 111.720 180.209,110.237 181.200,110.014 181.200 C 109.748 181.200,109.573 175.377,109.504 164.300 L 109.400 147.400 108.400 147.464 C 107.850 147.500,106.694 147.620,105.830 147.731 C 104.813 147.862,104.461 147.806,104.830 147.573 C 105.277 147.290,105.222 147.211,104.580 147.206 C 104.129 147.203,103.557 147.403,103.310 147.650 M147.399 158.798 C 147.534 159.017,148.040 159.403,148.522 159.656 C 149.394 160.113,149.395 160.110,148.638 159.258 C 147.875 158.398,146.936 158.050,147.399 158.798 M73.665 163.984 C 73.408 164.722,72.958 165.205,72.521 165.212 C 71.847 165.224,71.849 165.253,72.556 165.663 C 73.151 166.009,73.388 165.964,73.675 165.451 C 73.876 165.093,74.301 164.800,74.620 164.800 C 75.335 164.800,75.339 164.417,74.632 163.484 C 74.129 162.821,74.058 162.857,73.665 163.984 M155.600 166.243 C 155.600 166.402,155.867 166.818,156.194 167.166 C 156.520 167.515,157.255 168.340,157.826 169.000 C 158.688 169.997,158.655 169.883,157.627 168.320 C 156.426 166.497,155.600 165.649,155.600 166.243 M70.283 167.604 C 70.169 168.041,70.218 168.487,70.392 168.595 C 70.566 168.703,70.803 168.433,70.917 167.996 C 71.031 167.559,70.982 167.113,70.808 167.005 C 70.634 166.897,70.397 167.167,70.283 167.604 M67.714 170.325 C 66.789 171.576,66.218 172.664,66.446 172.743 C 67.075 172.961,68.494 171.307,67.888 171.061 C 67.527 170.915,67.536 170.855,67.924 170.832 C 68.212 170.814,68.336 170.620,68.200 170.400 C 68.064 170.180,68.143 169.978,68.376 169.950 C 69.399 169.829,69.548 169.785,69.803 169.530 C 69.952 169.382,69.921 168.988,69.735 168.655 C 69.470 168.181,69.031 168.544,67.714 170.325 M63.182 178.034 C 62.936 178.493,62.847 178.980,62.983 179.117 C 63.120 179.253,63.335 178.970,63.461 178.487 C 63.588 178.004,63.850 177.708,64.045 177.828 C 64.240 177.949,64.400 177.857,64.400 177.624 C 64.400 176.904,63.652 177.156,63.182 178.034 M60.814 183.574 C 60.159 184.798,60.330 185.026,61.200 184.092 C 62.085 183.142,62.195 182.800,61.614 182.800 C 61.402 182.800,61.042 183.148,60.814 183.574 M184.267 184.667 C 183.820 185.113,183.951 204.400,184.400 204.400 C 184.656 204.400,184.800 200.800,184.800 194.400 C 184.800 188.900,184.740 184.400,184.667 184.400 C 184.593 184.400,184.413 184.520,184.267 184.667 M60.187 185.800 C 59.573 187.767,59.573 187.832,60.199 187.024 C 60.785 186.266,61.012 185.200,60.587 185.200 C 60.471 185.200,60.291 185.470,60.187 185.800 M219.404 188.794 C 219.252 189.040,219.655 189.094,220.480 188.937 C 222.249 188.600,222.401 188.400,220.890 188.400 C 220.207 188.400,219.538 188.577,219.404 188.794 M167.489 189.649 C 167.736 189.896,167.835 190.391,167.710 190.749 C 167.541 191.232,167.604 191.289,167.954 190.967 C 168.488 190.477,168.143 189.200,167.477 189.200 C 167.168 189.200,167.171 189.331,167.489 189.649 M227.520 192.880 C 227.893 193.253,228.107 193.253,228.480 192.880 C 228.853 192.507,228.747 192.400,228.000 192.400 C 227.253 192.400,227.147 192.507,227.520 192.880 M58.499 193.991 C 57.812 195.090,57.874 195.383,58.632 194.625 C 58.980 194.277,59.204 193.813,59.131 193.592 C 59.057 193.372,58.773 193.551,58.499 193.991 M115.013 196.500 C 115.543 198.998,120.183 203.600,122.172 203.600 C 122.491 203.600,122.864 203.780,123.000 204.000 C 123.136 204.220,123.856 204.400,124.600 204.400 C 125.344 204.400,126.064 204.580,126.200 204.800 C 126.336 205.020,126.974 205.200,127.618 205.200 C 128.962 205.200,132.270 205.927,133.295 206.447 C 133.677 206.641,134.611 206.800,135.371 206.800 C 136.131 206.800,136.864 206.980,137.000 207.200 C 137.136 207.420,137.672 207.600,138.190 207.600 C 138.709 207.600,139.193 207.735,139.267 207.900 C 139.340 208.065,140.223 208.617,141.229 209.127 C 143.431 210.242,146.684 213.237,148.229 215.572 C 149.514 217.513,150.400 217.098,150.400 214.556 C 150.400 213.846,150.509 212.981,150.643 212.633 C 150.776 212.285,150.699 212.000,150.471 212.000 C 150.242 212.000,149.998 212.391,149.928 212.869 C 149.726 214.239,148.909 214.172,148.172 212.726 C 145.269 207.024,139.952 203.614,131.400 201.969 C 124.585 200.658,123.802 200.473,121.733 199.687 C 119.444 198.818,116.051 196.599,115.730 195.762 C 115.298 194.635,114.739 195.210,115.013 196.500 M57.687 202.600 C 57.683 206.759,57.815 209.378,58.000 208.800 C 58.406 207.532,58.406 198.196,58.000 196.600 C 57.826 195.915,57.691 198.491,57.687 202.600 M246.648 199.183 C 246.841 199.363,247.450 199.629,248.000 199.774 C 248.932 200.020,248.946 200.004,248.200 199.535 C 247.281 198.956,246.121 198.693,246.648 199.183 M252.146 199.287 C 251.878 199.721,252.872 199.669,253.595 199.212 C 254.059 198.918,253.986 198.851,253.265 198.905 C 252.756 198.943,252.252 199.115,252.146 199.287 M264.330 199.484 C 263.994 199.889,264.178 199.899,265.255 199.535 C 267.025 198.938,267.170 198.778,265.843 198.888 C 265.242 198.938,264.561 199.206,264.330 199.484 M248.806 200.833 C 248.809 201.145,248.990 201.670,249.207 202.000 C 249.521 202.476,249.577 202.416,249.478 201.710 C 249.335 200.687,248.797 199.984,248.806 200.833 M262.335 203.217 C 262.408 204.505,262.685 205.738,262.948 205.957 C 263.512 206.425,264.755 205.811,264.234 205.322 C 264.045 205.145,263.810 205.226,263.711 205.502 C 263.314 206.613,262.800 205.426,262.800 203.400 C 262.800 202.216,262.665 201.163,262.500 201.061 C 262.335 200.958,262.261 201.928,262.335 203.217 M211.600 202.400 C 211.600 203.060,211.780 203.600,212.000 203.600 C 212.220 203.600,212.400 203.060,212.400 202.400 C 212.400 201.740,212.220 201.200,212.000 201.200 C 211.780 201.200,211.600 201.740,211.600 202.400 M267.737 207.070 C 267.886 207.219,267.601 207.804,267.104 208.370 L 266.200 209.400 267.300 208.430 C 268.467 207.401,268.701 206.800,267.933 206.800 C 267.677 206.800,267.588 206.922,267.737 207.070 M208.460 208.642 C 208.162 208.978,207.999 209.332,208.095 209.429 C 208.192 209.526,208.598 209.244,208.998 208.802 C 209.397 208.361,209.561 208.007,209.362 208.015 C 209.163 208.024,208.757 208.305,208.460 208.642 M242.614 209.291 C 242.941 210.144,243.902 210.491,244.251 209.883 C 244.404 209.617,244.379 209.535,244.197 209.701 C 244.014 209.866,243.528 209.696,243.115 209.323 C 242.453 208.724,242.394 208.720,242.614 209.291 M258.800 209.200 C 258.800 209.420,258.494 209.600,258.120 209.600 C 257.605 209.600,257.552 209.712,257.903 210.063 C 258.254 210.414,258.516 210.402,258.983 210.014 C 259.683 209.433,259.796 208.800,259.200 208.800 C 258.980 208.800,258.800 208.980,258.800 209.200 M58.000 210.351 C 58.000 210.598,58.191 210.800,58.424 210.800 C 58.657 210.800,58.737 210.979,58.602 211.197 C 58.467 211.415,58.542 211.910,58.768 212.297 C 59.114 212.887,59.167 212.819,59.101 211.875 C 59.024 210.787,58.000 209.369,58.000 210.351 M204.000 210.885 C 204.000 211.327,205.104 211.279,205.385 210.824 C 205.513 210.618,205.253 210.476,204.809 210.509 C 204.364 210.543,204.000 210.712,204.000 210.885 M60.045 219.100 C 60.497 220.457,60.800 220.768,60.800 219.876 C 60.800 219.589,60.532 219.004,60.205 218.576 C 59.662 217.866,59.648 217.911,60.045 219.100 M166.119 220.253 C 166.258 220.392,166.188 220.887,165.964 221.353 C 165.567 222.176,165.573 222.178,166.178 221.424 C 166.918 220.499,166.973 220.000,166.333 220.000 C 166.077 220.000,165.980 220.114,166.119 220.253 M63.200 227.551 C 63.200 228.072,64.379 228.955,64.676 228.657 C 64.818 228.516,64.723 228.400,64.467 228.400 C 64.210 228.400,64.000 228.130,64.000 227.800 C 64.000 227.470,63.820 227.200,63.600 227.200 C 63.380 227.200,63.200 227.358,63.200 227.551 M64.992 230.132 C 65.328 230.644,65.467 231.213,65.301 231.396 C 65.136 231.579,65.218 231.603,65.485 231.450 C 66.024 231.140,65.370 229.200,64.727 229.200 C 64.537 229.200,64.656 229.619,64.992 230.132 M67.446 234.060 C 67.785 234.596,67.854 234.809,67.950 235.624 C 67.978 235.857,68.156 235.951,68.347 235.833 C 68.537 235.715,69.015 235.975,69.409 236.409 C 69.802 236.844,70.311 237.200,70.539 237.200 C 70.767 237.200,70.383 236.727,69.685 236.149 C 68.987 235.570,68.508 234.950,68.619 234.769 C 68.731 234.588,68.436 234.233,67.963 233.980 C 67.263 233.606,67.167 233.621,67.446 234.060 M70.466 237.950 C 70.044 238.219,70.076 238.344,70.624 238.554 C 71.004 238.700,71.409 238.725,71.524 238.609 C 71.639 238.494,71.478 238.397,71.167 238.394 C 70.700 238.389,70.706 238.319,71.200 238.000 C 71.530 237.787,71.620 237.612,71.400 237.612 C 71.180 237.612,70.760 237.764,70.466 237.950 M71.600 239.600 C 71.600 239.820,71.780 240.000,72.000 240.000 C 72.220 240.000,72.414 240.315,72.432 240.700 C 72.449 241.085,72.549 241.189,72.655 240.931 C 72.760 240.672,73.296 240.543,73.851 240.644 C 74.704 240.798,74.776 240.740,74.328 240.257 C 74.038 239.944,73.485 239.748,73.100 239.821 C 72.715 239.894,72.400 239.784,72.400 239.577 C 72.400 239.370,72.220 239.200,72.000 239.200 C 71.780 239.200,71.600 239.380,71.600 239.600 M112.500 258.676 C 112.885 258.776,113.515 258.776,113.900 258.676 C 114.285 258.575,113.970 258.493,113.200 258.493 C 112.430 258.493,112.115 258.575,112.500 258.676 " stroke="none" fill="#343c93" fill-rule="evenodd"></path><path id="path4" d="M111.200 163.100 C 111.200 180.402,111.169 180.164,113.206 178.275 C 114.538 177.039,118.660 174.800,119.601 174.800 C 120.014 174.800,120.447 174.647,120.563 174.460 C 121.391 173.121,133.104 173.117,134.580 174.455 C 134.789 174.645,135.543 174.800,136.256 174.800 C 136.969 174.800,137.664 174.980,137.800 175.200 C 137.936 175.420,138.487 175.600,139.024 175.600 C 139.561 175.600,140.000 175.780,140.000 176.000 C 140.000 176.220,140.444 176.400,140.986 176.400 L 141.973 176.400 142.086 166.565 L 142.200 156.730 141.142 155.888 C 140.560 155.425,140.167 154.829,140.269 154.564 C 140.371 154.298,140.262 153.962,140.027 153.817 C 139.787 153.668,139.588 153.869,139.572 154.276 C 139.547 154.919,139.508 154.911,139.222 154.200 C 139.045 153.760,138.967 153.284,139.048 153.142 C 139.129 153.000,138.947 152.788,138.643 152.672 C 138.243 152.518,138.151 152.700,138.308 153.330 C 138.480 154.019,138.239 153.891,137.146 152.713 C 136.188 151.680,135.375 151.196,134.483 151.128 C 133.777 151.074,133.200 150.909,133.200 150.762 C 133.200 150.477,131.855 149.957,130.721 149.803 C 130.348 149.753,129.401 149.407,128.617 149.035 C 127.833 148.663,127.005 148.473,126.778 148.614 C 126.551 148.754,125.942 148.592,125.425 148.253 C 124.908 147.915,124.016 147.723,123.443 147.827 C 122.869 147.931,122.400 147.832,122.400 147.608 C 122.400 147.384,121.939 147.200,121.376 147.200 C 120.813 147.200,120.457 147.368,120.584 147.574 C 120.718 147.791,120.265 147.775,119.508 147.536 C 118.788 147.309,116.625 147.096,114.700 147.062 L 111.200 147.000 111.200 163.100 M98.725 156.399 C 95.757 158.850,95.189 160.935,95.275 169.075 L 95.350 176.200 95.592 169.000 C 95.783 163.341,95.989 161.437,96.559 160.105 C 97.454 158.009,99.797 155.854,100.875 156.135 C 101.353 156.260,101.586 156.159,101.490 155.869 C 101.197 154.989,100.202 155.181,98.725 156.399 M101.772 165.800 C 101.772 170.860,101.829 172.875,101.899 170.277 C 101.969 167.680,101.968 163.540,101.898 161.077 C 101.828 158.615,101.771 160.740,101.772 165.800 M94.595 189.069 C 93.922 215.986,96.542 225.683,106.672 233.768 C 107.952 234.791,109.495 236.068,110.100 236.607 L 111.200 237.587 111.200 247.714 C 111.200 255.279,111.074 257.968,110.700 258.345 C 110.298 258.752,110.424 258.766,111.346 258.417 C 112.499 257.982,115.800 258.067,116.277 258.544 C 116.666 258.932,117.678 258.850,117.431 258.450 C 117.312 258.258,118.503 258.074,120.077 258.042 C 121.650 258.010,123.177 257.785,123.469 257.543 C 123.761 257.300,124.915 257.066,126.033 257.022 C 127.151 256.978,128.186 256.775,128.333 256.571 C 128.582 256.225,129.101 256.030,130.288 255.836 C 130.557 255.792,130.902 255.631,131.055 255.478 C 131.208 255.325,131.734 255.200,132.224 255.200 C 132.714 255.200,133.209 254.953,133.325 254.651 C 133.448 254.331,133.977 254.151,134.598 254.220 C 135.319 254.299,135.599 254.175,135.469 253.835 C 135.338 253.493,135.658 253.356,136.474 253.404 C 137.252 253.451,137.758 253.252,137.914 252.838 C 138.361 251.657,139.196 251.041,139.225 251.871 C 139.247 252.481,139.308 252.458,139.601 251.731 C 139.861 251.086,140.177 250.921,140.829 251.092 C 141.471 251.260,141.652 251.171,141.504 250.761 C 141.392 250.452,141.097 250.245,140.850 250.300 C 140.286 250.425,140.273 249.784,140.820 248.763 C 141.051 248.331,141.411 248.083,141.620 248.212 C 141.852 248.356,142.000 246.632,142.000 243.797 C 142.000 238.505,142.114 238.173,144.476 236.579 C 146.650 235.112,152.264 229.459,152.601 228.398 C 152.740 227.959,152.996 227.600,153.169 227.600 C 153.643 227.600,156.776 220.651,157.468 218.064 C 158.228 215.227,158.377 203.417,157.662 202.702 C 157.408 202.448,157.200 201.914,157.200 201.515 C 157.200 201.116,157.041 200.477,156.847 200.095 C 156.652 199.713,156.269 198.860,155.994 198.200 C 150.780 185.669,138.579 177.723,125.799 178.536 C 110.155 179.532,102.005 193.762,110.179 205.808 C 111.191 207.299,111.200 207.382,111.206 215.556 C 111.213 224.895,111.043 224.282,114.138 226.146 C 122.993 231.478,136.966 229.759,140.202 222.939 C 141.055 221.141,142.000 221.957,142.000 224.493 C 142.000 233.616,125.179 237.418,114.215 230.773 C 107.202 226.523,103.923 220.940,102.014 210.000 C 101.646 207.887,101.638 207.920,101.827 210.841 C 102.721 224.715,113.145 234.627,126.800 234.586 C 146.373 234.528,148.220 215.878,129.000 212.365 C 127.900 212.164,125.920 211.824,124.600 211.610 C 118.074 210.550,113.268 208.541,111.042 205.941 C 100.834 194.014,112.987 177.006,130.200 179.132 C 160.632 182.889,167.914 223.821,140.586 237.515 C 122.730 246.463,101.760 236.584,96.613 216.800 C 95.468 212.402,95.186 207.562,95.196 192.500 C 95.201 184.085,95.135 177.200,95.049 177.200 C 94.962 177.200,94.758 182.541,94.595 189.069 M101.378 195.000 C 101.378 201.820,101.432 204.666,101.499 201.325 C 101.566 197.984,101.566 192.404,101.499 188.925 C 101.433 185.446,101.378 188.180,101.378 195.000 M122.000 185.672 C 121.450 185.902,120.337 186.362,119.526 186.694 C 113.323 189.236,112.097 196.501,117.066 201.273 C 119.806 203.905,123.050 205.121,131.800 206.797 C 140.053 208.377,144.968 211.468,148.221 217.120 C 149.276 218.954,149.786 219.098,150.324 217.715 C 154.706 206.457,148.601 192.494,137.000 187.238 C 132.774 185.324,124.820 184.493,122.000 185.672 M200.924 191.000 C 200.926 192.320,201.001 192.812,201.090 192.093 C 201.179 191.374,201.177 190.294,201.086 189.693 C 200.995 189.092,200.922 189.680,200.924 191.000 M143.498 193.014 C 146.320 194.990,150.400 202.493,150.400 205.705 C 150.400 206.281,150.580 206.864,150.800 207.000 C 151.648 207.524,150.880 215.853,149.826 217.557 C 149.629 217.877,149.150 217.447,148.415 216.288 C 147.100 214.215,142.887 210.000,142.129 210.000 C 141.838 210.000,141.600 209.862,141.600 209.694 C 141.600 209.091,135.950 206.815,134.428 206.806 C 133.894 206.803,132.904 206.631,132.228 206.424 C 131.553 206.217,129.920 205.838,128.600 205.580 C 119.456 203.798,114.442 199.994,114.409 194.814 L 114.400 193.427 116.500 195.473 C 119.031 197.938,120.837 198.876,124.800 199.786 C 126.450 200.165,128.353 200.638,129.028 200.837 C 129.704 201.037,131.088 201.200,132.105 201.200 C 133.121 201.200,134.064 201.380,134.200 201.600 C 134.336 201.820,134.979 202.000,135.629 202.000 C 136.279 202.000,137.123 202.159,137.505 202.353 C 137.887 202.548,138.740 202.929,139.400 203.200 C 140.060 203.471,140.915 203.854,141.300 204.050 C 141.951 204.382,142.000 203.990,142.000 198.403 C 142.000 192.175,142.049 191.999,143.498 193.014 M200.967 199.742 C 200.852 200.040,200.823 201.435,200.902 202.842 L 201.046 205.400 201.123 202.529 C 201.186 200.171,201.325 199.626,201.900 199.476 C 202.556 199.304,202.555 199.290,201.887 199.246 C 201.496 199.221,201.081 199.444,200.967 199.742 M267.914 202.900 C 268.120 206.682,268.279 207.055,268.340 203.900 C 268.373 202.195,268.265 200.800,268.100 200.800 C 267.935 200.800,267.851 201.745,267.914 202.900 M192.793 207.881 C 192.687 209.025,192.747 209.815,192.926 209.635 C 193.105 209.456,193.191 208.519,193.118 207.554 L 192.985 205.800 192.793 207.881 M182.100 210.697 C 183.805 210.772,186.595 210.772,188.300 210.697 C 190.005 210.622,188.610 210.561,185.200 210.561 C 181.790 210.561,180.395 210.622,182.100 210.697 M197.900 210.693 C 198.835 210.777,200.365 210.777,201.300 210.693 C 202.235 210.609,201.470 210.540,199.600 210.540 C 197.730 210.540,196.965 210.609,197.900 210.693 M145.300 247.465 C 144.635 247.733,144.659 248.400,145.333 248.400 C 145.627 248.400,145.867 248.130,145.867 247.800 C 145.867 247.470,145.852 247.214,145.833 247.232 C 145.815 247.249,145.575 247.354,145.300 247.465 M142.480 249.280 C 142.216 249.544,142.005 249.949,142.012 250.180 C 142.019 250.411,142.210 250.281,142.437 249.892 C 142.664 249.502,143.018 249.288,143.225 249.415 C 143.431 249.543,143.600 249.457,143.600 249.224 C 143.600 248.660,143.073 248.687,142.480 249.280 " stroke="none" fill="#7f73b0" fill-rule="evenodd"></path></g></svg>